# xmcd
#
# Track frame offsets:
#	150
#	16604
#	44827
#	63536
#	82441
#	100004
#	117120
#	133778
#	149558
#	168222
#	187442
#	207401
#	222119
#	237070
#	255250
#
# Disc length: 3568 seconds
#
# Revision: 1
# Processed by: cddbd v1.5.2PL0 Copyright (c) Steve Scherf et al.
# Submitted via: audiograbber 1.83.01
#
DISCID=df0dee0f
DTITLE=Faith Hill - The Hits
DYEAR=2007
DGENRE=Country
TTITLE0=Red Umbrella
TTITLE1=Stronger (Live)
TTITLE2=I Need You (With Tim McGraw)
TTITLE3=Lost
TTITLE4=Mississippi Girl
TTITLE5=Cry
TTITLE6=There You'll Be
TTITLE7=The Way You Love Me
TTITLE8=Breathe
TTITLE9=The Secret Of Life
TTITLE10=Let Me Let Go
TTITLE11=This Kiss
TTITLE12=It Matters To Me
TTITLE13=Piece Of My Heart
TTITLE14=Wild One
EXTD=
EXTT0=
EXTT1=
EXTT2=
EXTT3=
EXTT4=
EXTT5=
EXTT6=
EXTT7=
EXTT8=
EXTT9=
EXTT10=
EXTT11=
EXTT12=
EXTT13=
EXTT14=
PLAYORDER=
